<?xml version="1.0" encoding="utf-8" standalone="no"?>
<!DOCTYPE svg PUBLIC "-//W3C//DTD SVG 1.1//EN"
  "http://www.w3.org/Graphics/SVG/1.1/DTD/svg11.dtd">
<svg xmlns:xlink="http://www.w3.org/1999/xlink" width="14.775883pt" height="26.603125pt" viewBox="0 0 14.775883 26.603125" xmlns="http://www.w3.org/2000/svg" version="1.1">
 <metadata>
  <rdf:RDF xmlns:dc="http://purl.org/dc/elements/1.1/" xmlns:cc="http://creativecommons.org/ns#" xmlns:rdf="http://www.w3.org/1999/02/22-rdf-syntax-ns#">
   <cc:Work>
    <dc:type rdf:resource="http://purl.org/dc/dcmitype/StillImage"/>
    <dc:date>2025-12-31T16:24:14.624505</dc:date>
    <dc:format>image/svg+xml</dc:format>
    <dc:creator>
     <cc:Agent>
      <dc:title>Matplotlib v3.8.2, https://matplotlib.org/</dc:title>
     </cc:Agent>
    </dc:creator>
   </cc:Work>
  </rdf:RDF>
 </metadata>
 <defs>
  <style type="text/css">*{stroke-linejoin: round; stroke-linecap: butt}</style>
 </defs>
 <g id="figure_1">
  <g id="patch_1">
   <path d="M 0 26.603125 
L 14.775883 26.603125 
L 14.775883 0 
L 0 0 
L 0 26.603125 
z
" style="fill: none"/>
  </g>
  <g id="axes_1">
   <g id="text_1">
    <!-- $\hat{\boldsymbol{\epsilon}}$ -->
    <g transform="translate(1.44 19.755938) scale(0.26 -0.26)">
     <defs>
      <path id="STIXGeneral-Regular-302" d="M -480 3245 
L -698 3245 
L -1478 3904 
L -2253 3245 
L -2470 3245 
L -1677 4314 
L -1280 4314 
L -480 3245 
z
" transform="scale(0.015625)"/>
      <path id="STIXGeneral-BoldItalic-3b5" d="M 531 1498 
L 531 1504 
Q 250 1664 250 1958 
Q 250 2362 736 2659 
Q 1222 2957 1856 2957 
Q 2157 2957 2384 2797 
Q 2611 2637 2611 2381 
Q 2611 2189 2499 2057 
Q 2387 1926 2214 1926 
Q 2054 1926 1948 2022 
Q 1843 2118 1843 2266 
Q 1843 2362 1910 2467 
Q 1978 2573 1978 2637 
Q 1978 2682 1914 2714 
Q 1850 2746 1786 2746 
Q 1562 2746 1341 2512 
Q 1120 2278 1120 1978 
Q 1120 1645 1395 1645 
Q 1421 1645 1513 1673 
Q 1606 1702 1702 1702 
Q 1926 1702 1926 1555 
Q 1926 1338 1587 1338 
Q 1562 1338 1494 1357 
Q 1427 1376 1376 1376 
Q 1120 1376 953 1187 
Q 787 998 787 768 
Q 787 582 908 454 
Q 1030 326 1254 326 
Q 1792 326 2170 858 
L 2349 742 
Q 1786 -83 1024 -83 
Q 474 -83 221 137 
Q -32 358 -32 685 
Q -32 1248 531 1498 
z
" transform="scale(0.015625)"/>
     </defs>
     <use xlink:href="#STIXGeneral-Regular-302" transform="translate(50.943748 8.59375)"/>
     <use xlink:href="#STIXGeneral-BoldItalic-3b5" transform="translate(0 0.59375)"/>
    </g>
   </g>
  </g>
 </g>
</svg>
