<?xml version="1.0" encoding="utf-8" standalone="no"?>
<!DOCTYPE svg PUBLIC "-//W3C//DTD SVG 1.1//EN"
  "http://www.w3.org/Graphics/SVG/1.1/DTD/svg11.dtd">
<svg xmlns:xlink="http://www.w3.org/1999/xlink" width="82.767959pt" height="26.603125pt" viewBox="0 0 82.767959 26.603125" xmlns="http://www.w3.org/2000/svg" version="1.1">
 <metadata>
  <rdf:RDF xmlns:dc="http://purl.org/dc/elements/1.1/" xmlns:cc="http://creativecommons.org/ns#" xmlns:rdf="http://www.w3.org/1999/02/22-rdf-syntax-ns#">
   <cc:Work>
    <dc:type rdf:resource="http://purl.org/dc/dcmitype/StillImage"/>
    <dc:date>2025-12-31T16:43:04.917405</dc:date>
    <dc:format>image/svg+xml</dc:format>
    <dc:creator>
     <cc:Agent>
      <dc:title>Matplotlib v3.8.2, https://matplotlib.org/</dc:title>
     </cc:Agent>
    </dc:creator>
   </cc:Work>
  </rdf:RDF>
 </metadata>
 <defs>
  <style type="text/css">*{stroke-linejoin: round; stroke-linecap: butt}</style>
 </defs>
 <g id="figure_1">
  <g id="patch_1">
   <path d="M 0 26.603125 
L 82.767959 26.603125 
L 82.767959 0 
L 0 0 
L 0 26.603125 
z
" style="fill: none"/>
  </g>
  <g id="axes_1">
   <g id="text_1">
    <!-- $\boldsymbol{u}_{feedback}$ -->
    <g transform="translate(1.44 17.883125) scale(0.26 -0.26)">
     <defs>
      <path id="STIXGeneral-BoldItalic-75" d="M 3014 851 
L 3155 768 
Q 2906 339 2666 140 
Q 2426 -58 2138 -58 
Q 1702 -58 1702 326 
Q 1702 525 1869 1030 
L 1862 1030 
Q 1414 371 1161 156 
Q 909 -58 595 -58 
Q 96 -58 96 448 
Q 96 621 237 1126 
L 474 1946 
Q 582 2342 582 2426 
Q 582 2579 211 2605 
L 211 2778 
Q 768 2790 1555 2957 
L 960 1024 
Q 858 698 858 563 
Q 858 403 1011 403 
Q 1190 403 1459 755 
Q 1760 1146 1942 1555 
Q 2125 1965 2368 2874 
L 3123 2874 
L 2624 1171 
Q 2464 608 2464 512 
Q 2464 378 2554 378 
Q 2707 378 3014 851 
z
" transform="scale(0.015625)"/>
      <path id="STIXGeneral-Italic-66" d="M 262 2739 
L 858 2739 
Q 1107 3546 1318 3846 
Q 1664 4339 2163 4339 
Q 2400 4339 2557 4227 
Q 2714 4115 2714 3942 
Q 2714 3834 2634 3750 
Q 2554 3667 2445 3667 
Q 2355 3667 2281 3737 
Q 2208 3808 2208 3917 
Q 2208 3981 2240 4038 
Q 2272 4096 2272 4115 
Q 2272 4198 2131 4198 
Q 1862 4198 1676 3849 
Q 1491 3501 1350 2739 
L 2035 2739 
L 1997 2534 
L 1306 2534 
L 845 486 
Q 435 -1325 -435 -1325 
Q -653 -1325 -797 -1213 
Q -941 -1101 -941 -934 
Q -941 -826 -870 -746 
Q -800 -666 -698 -666 
Q -589 -666 -521 -733 
Q -454 -800 -454 -902 
Q -454 -947 -483 -1001 
Q -512 -1056 -512 -1088 
Q -512 -1190 -384 -1190 
Q 13 -1190 237 -154 
L 800 2534 
L 218 2534 
L 262 2739 
z
" transform="scale(0.015625)"/>
      <path id="STIXGeneral-Italic-65" d="M 2291 698 
L 2368 621 
Q 1805 -70 1062 -70 
Q 672 -70 435 170 
Q 198 410 198 806 
Q 198 1555 796 2188 
Q 1395 2822 2112 2822 
Q 2362 2822 2499 2707 
Q 2637 2592 2637 2387 
Q 2637 1965 2147 1632 
Q 1658 1299 819 1190 
Q 755 1062 755 800 
Q 755 538 918 378 
Q 1082 218 1350 218 
Q 1562 218 1754 317 
Q 1946 416 2291 698 
z
M 973 1613 
L 864 1331 
Q 1581 1504 1894 1805 
Q 2214 2112 2214 2426 
Q 2214 2675 1990 2675 
Q 1722 2675 1430 2364 
Q 1139 2054 973 1613 
z
" transform="scale(0.015625)"/>
      <path id="STIXGeneral-Italic-64" d="M 3334 4371 
L 3373 4333 
L 3123 3360 
L 2739 1958 
Q 2323 429 2323 384 
Q 2323 256 2438 256 
Q 2522 256 2614 336 
Q 2707 416 2963 710 
L 3040 646 
Q 2547 -83 2099 -83 
Q 1978 -83 1907 -6 
Q 1837 70 1837 205 
Q 1837 397 1920 774 
Q 1645 307 1379 118 
Q 1114 -70 781 -70 
Q 461 -70 278 125 
Q 96 320 96 678 
Q 96 1440 713 2131 
Q 1331 2822 1965 2822 
Q 2163 2822 2256 2732 
Q 2349 2643 2381 2451 
L 2387 2451 
L 2675 3494 
Q 2765 3808 2765 3949 
Q 2765 4051 2694 4076 
Q 2624 4102 2355 4115 
L 2355 4224 
Q 2848 4269 3334 4371 
z
M 2278 2310 
Q 2278 2477 2185 2576 
Q 2093 2675 1978 2675 
Q 1677 2675 1395 2381 
Q 1075 2042 864 1571 
Q 653 1101 653 704 
Q 653 486 752 361 
Q 851 237 1024 237 
Q 1312 237 1606 550 
Q 1901 864 2089 1350 
Q 2278 1837 2278 2310 
z
" transform="scale(0.015625)"/>
      <path id="STIXGeneral-Italic-62" d="M 1043 1856 
L 1050 1856 
Q 1370 2387 1654 2604 
Q 1939 2822 2285 2822 
Q 2618 2822 2822 2617 
Q 3027 2413 3027 2054 
Q 3027 1562 2726 1062 
Q 2426 563 1942 246 
Q 1459 -70 979 -70 
Q 685 -70 416 32 
Q 147 134 147 269 
L 147 307 
L 1056 3654 
Q 1114 3885 1114 3955 
Q 1114 4058 1053 4080 
Q 992 4102 704 4115 
L 704 4224 
Q 1184 4282 1683 4371 
L 1715 4339 
L 1581 3814 
L 1043 1856 
z
M 2483 1958 
Q 2483 2509 2035 2509 
Q 1594 2509 1158 1773 
Q 954 1427 826 1008 
Q 698 589 698 294 
Q 698 77 992 77 
Q 1414 77 1779 454 
Q 2074 762 2278 1187 
Q 2483 1613 2483 1958 
z
" transform="scale(0.015625)"/>
      <path id="STIXGeneral-Italic-61" d="M 2963 710 
L 3046 640 
Q 2688 205 2518 70 
Q 2349 -64 2157 -64 
Q 1901 -64 1901 198 
Q 1901 358 2048 934 
Q 1690 397 1389 163 
Q 1088 -70 749 -70 
Q 467 -70 288 125 
Q 109 320 109 672 
Q 109 1158 387 1664 
Q 666 2170 1094 2496 
Q 1523 2822 1939 2822 
Q 2368 2822 2451 2451 
L 2522 2758 
L 2541 2778 
L 2931 2822 
L 2976 2803 
Q 2970 2778 2938 2669 
Q 2368 595 2368 346 
Q 2368 262 2458 262 
Q 2554 262 2790 525 
L 2963 710 
z
M 2336 2310 
Q 2336 2477 2240 2579 
Q 2144 2682 1978 2682 
Q 1542 2682 1139 2093 
Q 928 1779 787 1395 
Q 646 1011 646 717 
Q 646 243 1030 243 
Q 1408 243 1843 870 
Q 2336 1581 2336 2310 
z
" transform="scale(0.015625)"/>
      <path id="STIXGeneral-Italic-63" d="M 2240 685 
L 2342 621 
Q 2048 250 1769 90 
Q 1491 -70 1133 -70 
Q 678 -70 435 179 
Q 192 429 192 915 
Q 192 1344 409 1744 
Q 627 2144 979 2432 
Q 1472 2822 2048 2822 
Q 2342 2822 2531 2675 
Q 2720 2528 2720 2304 
Q 2720 2176 2630 2086 
Q 2541 1997 2413 1997 
Q 2285 1997 2224 2070 
Q 2163 2144 2163 2253 
Q 2163 2310 2211 2403 
Q 2259 2496 2259 2560 
Q 2259 2688 2022 2688 
Q 1619 2688 1325 2381 
Q 742 1766 742 890 
Q 742 544 889 352 
Q 1037 160 1312 160 
Q 1562 160 1766 281 
Q 1971 403 2240 685 
z
" transform="scale(0.015625)"/>
      <path id="STIXGeneral-Italic-6b" d="M 2950 2739 
L 2950 2637 
Q 2720 2624 2464 2448 
Q 2208 2272 1510 1651 
L 1747 1088 
Q 2099 262 2266 262 
Q 2400 262 2554 531 
Q 2586 582 2650 698 
L 2746 627 
Q 2522 224 2374 77 
Q 2227 -70 2035 -70 
Q 1894 -70 1782 42 
Q 1670 154 1517 454 
Q 1325 826 1133 1357 
L 877 1152 
L 570 0 
L 90 0 
L 992 3379 
Q 1082 3699 1107 3942 
Q 1088 4096 781 4096 
L 666 4096 
L 666 4198 
Q 1146 4256 1670 4371 
L 1709 4333 
L 941 1414 
L 1216 1626 
Q 2131 2330 2131 2522 
Q 2131 2637 1894 2637 
L 1805 2637 
L 1805 2739 
L 2950 2739 
z
" transform="scale(0.015625)"/>
     </defs>
     <use xlink:href="#STIXGeneral-BoldItalic-75" transform="translate(0 0.796875)"/>
     <use xlink:href="#STIXGeneral-Italic-66" transform="translate(57.143272 -12.43125) scale(0.7)"/>
     <use xlink:href="#STIXGeneral-Italic-65" transform="translate(76.603264 -12.43125) scale(0.7)"/>
     <use xlink:href="#STIXGeneral-Italic-65" transform="translate(107.683259 -12.43125) scale(0.7)"/>
     <use xlink:href="#STIXGeneral-Italic-64" transform="translate(138.763255 -12.43125) scale(0.7)"/>
     <use xlink:href="#STIXGeneral-Italic-62" transform="translate(173.763244 -12.43125) scale(0.7)"/>
     <use xlink:href="#STIXGeneral-Italic-61" transform="translate(208.763234 -12.43125) scale(0.7)"/>
     <use xlink:href="#STIXGeneral-Italic-63" transform="translate(243.833227 -12.43125) scale(0.7)"/>
     <use xlink:href="#STIXGeneral-Italic-6b" transform="translate(274.913223 -12.43125) scale(0.7)"/>
    </g>
   </g>
  </g>
 </g>
</svg>
