<?xml version="1.0" encoding="utf-8" standalone="no"?>
<!DOCTYPE svg PUBLIC "-//W3C//DTD SVG 1.1//EN"
  "http://www.w3.org/Graphics/SVG/1.1/DTD/svg11.dtd">
<svg xmlns:xlink="http://www.w3.org/1999/xlink" width="16pt" height="26.603125pt" viewBox="0 0 16 26.603125" xmlns="http://www.w3.org/2000/svg" version="1.1">
 <metadata>
  <rdf:RDF xmlns:dc="http://purl.org/dc/elements/1.1/" xmlns:cc="http://creativecommons.org/ns#" xmlns:rdf="http://www.w3.org/1999/02/22-rdf-syntax-ns#">
   <cc:Work>
    <dc:type rdf:resource="http://purl.org/dc/dcmitype/StillImage"/>
    <dc:date>2025-12-31T16:43:04.950638</dc:date>
    <dc:format>image/svg+xml</dc:format>
    <dc:creator>
     <cc:Agent>
      <dc:title>Matplotlib v3.8.2, https://matplotlib.org/</dc:title>
     </cc:Agent>
    </dc:creator>
   </cc:Work>
  </rdf:RDF>
 </metadata>
 <defs>
  <style type="text/css">*{stroke-linejoin: round; stroke-linecap: butt}</style>
 </defs>
 <g id="figure_1">
  <g id="patch_1">
   <path d="M 0 26.603125 
L 16 26.603125 
L 16 0 
L 0 0 
L 0 26.603125 
z
" style="fill: none"/>
  </g>
  <g id="axes_1">
   <g id="text_1">
    <!-- $\boldsymbol{u}$ -->
    <g transform="translate(1.44 19.755938) scale(0.26 -0.26)">
     <defs>
      <path id="STIXGeneral-BoldItalic-75" d="M 3014 851 
L 3155 768 
Q 2906 339 2666 140 
Q 2426 -58 2138 -58 
Q 1702 -58 1702 326 
Q 1702 525 1869 1030 
L 1862 1030 
Q 1414 371 1161 156 
Q 909 -58 595 -58 
Q 96 -58 96 448 
Q 96 621 237 1126 
L 474 1946 
Q 582 2342 582 2426 
Q 582 2579 211 2605 
L 211 2778 
Q 768 2790 1555 2957 
L 960 1024 
Q 858 698 858 563 
Q 858 403 1011 403 
Q 1190 403 1459 755 
Q 1760 1146 1942 1555 
Q 2125 1965 2368 2874 
L 3123 2874 
L 2624 1171 
Q 2464 608 2464 512 
Q 2464 378 2554 378 
Q 2707 378 3014 851 
z
" transform="scale(0.015625)"/>
     </defs>
     <use xlink:href="#STIXGeneral-BoldItalic-75" transform="translate(0 0.796875)"/>
    </g>
   </g>
  </g>
 </g>
</svg>
