<?xml version="1.0" encoding="utf-8" standalone="no"?>
<!DOCTYPE svg PUBLIC "-//W3C//DTD SVG 1.1//EN"
  "http://www.w3.org/Graphics/SVG/1.1/DTD/svg11.dtd">
<svg xmlns:xlink="http://www.w3.org/1999/xlink" width="28.760308pt" height="32.626pt" viewBox="0 0 28.760308 32.626" xmlns="http://www.w3.org/2000/svg" version="1.1">
 <metadata>
  <rdf:RDF xmlns:dc="http://purl.org/dc/elements/1.1/" xmlns:cc="http://creativecommons.org/ns#" xmlns:rdf="http://www.w3.org/1999/02/22-rdf-syntax-ns#">
   <cc:Work>
    <dc:type rdf:resource="http://purl.org/dc/dcmitype/StillImage"/>
    <dc:date>2025-12-31T16:24:14.467523</dc:date>
    <dc:format>image/svg+xml</dc:format>
    <dc:creator>
     <cc:Agent>
      <dc:title>Matplotlib v3.8.2, https://matplotlib.org/</dc:title>
     </cc:Agent>
    </dc:creator>
   </cc:Work>
  </rdf:RDF>
 </metadata>
 <defs>
  <style type="text/css">*{stroke-linejoin: round; stroke-linecap: butt}</style>
 </defs>
 <g id="figure_1">
  <g id="patch_1">
   <path d="M 0 32.626 
L 28.760308 32.626 
L 28.760308 0 
L 0 0 
L 0 32.626 
z
" style="fill: none"/>
  </g>
  <g id="axes_1">
   <g id="text_1">
    <!-- $\hat{\mathbf{F}}_d$ -->
    <g transform="translate(1.44 25.778813) scale(0.26 -0.26)">
     <defs>
      <path id="STIXGeneral-Regular-302" d="M -480 3245 
L -698 3245 
L -1478 3904 
L -2253 3245 
L -2470 3245 
L -1677 4314 
L -1280 4314 
L -480 3245 
z
" transform="scale(0.015625)"/>
      <path id="STIXGeneral-Bold-46" d="M 3731 3034 
L 3578 3034 
Q 3514 3398 3437 3555 
Q 3360 3712 3194 3859 
Q 2906 4109 2150 4109 
Q 1907 4109 1804 4035 
Q 1702 3962 1702 3782 
L 1702 2323 
Q 2182 2323 2400 2531 
Q 2618 2739 2682 3277 
L 2842 3277 
L 2842 1114 
L 2682 1114 
Q 2637 1670 2419 1881 
Q 2202 2093 1702 2106 
L 1702 646 
Q 1702 371 1836 275 
Q 1971 179 2406 160 
L 2406 0 
L 102 0 
L 102 160 
Q 454 198 560 294 
Q 666 390 666 659 
L 666 3680 
Q 666 3955 550 4051 
Q 435 4147 102 4166 
L 102 4326 
L 3731 4326 
L 3731 3034 
z
" transform="scale(0.015625)"/>
      <path id="STIXGeneral-Italic-64" d="M 3334 4371 
L 3373 4333 
L 3123 3360 
L 2739 1958 
Q 2323 429 2323 384 
Q 2323 256 2438 256 
Q 2522 256 2614 336 
Q 2707 416 2963 710 
L 3040 646 
Q 2547 -83 2099 -83 
Q 1978 -83 1907 -6 
Q 1837 70 1837 205 
Q 1837 397 1920 774 
Q 1645 307 1379 118 
Q 1114 -70 781 -70 
Q 461 -70 278 125 
Q 96 320 96 678 
Q 96 1440 713 2131 
Q 1331 2822 1965 2822 
Q 2163 2822 2256 2732 
Q 2349 2643 2381 2451 
L 2387 2451 
L 2675 3494 
Q 2765 3808 2765 3949 
Q 2765 4051 2694 4076 
Q 2624 4102 2355 4115 
L 2355 4224 
Q 2848 4269 3334 4371 
z
M 2278 2310 
Q 2278 2477 2185 2576 
Q 2093 2675 1978 2675 
Q 1677 2675 1395 2381 
Q 1075 2042 864 1571 
Q 653 1101 653 704 
Q 653 486 752 361 
Q 851 237 1024 237 
Q 1312 237 1606 550 
Q 1901 864 2089 1350 
Q 2278 1837 2278 2310 
z
" transform="scale(0.015625)"/>
     </defs>
     <use xlink:href="#STIXGeneral-Regular-302" transform="translate(60.868748 29.59375)"/>
     <use xlink:href="#STIXGeneral-Bold-46" transform="translate(0 0.203125)"/>
     <use xlink:href="#STIXGeneral-Italic-64" transform="translate(62.643272 -13.025) scale(0.7)"/>
    </g>
   </g>
  </g>
 </g>
</svg>
